<svg id="Layer_1" data-name="Layer 1" xmlns="http://www.w3.org/2000/svg" viewBox="0 0 188 47"><defs><style>.cls-1{fill:#fff}.cls-2{fill:#ee2a7b}</style></defs><g id="Page-1"><g id="Desktop-HD-Copy-11"><g id="webscope-logo-reversed"><path id="Shape" class="cls-1" d="M110 14.92v5.6a39.56 39.56 0 0 0-6.23-.76 4.67 4.67 0 0 0-3.24.84c-.46.29-.7 1.47-.7 3.52V27c0 1.89.2 3 .62 3.32.5.63 1.58 1 3.2 1h.5a36.78 36.78 0 0 0 5.82-.8V36c0 .13-1.21.38-3.66.76A26.94 26.94 0 0 1 103 37q-7 0-9.23-5.17a14.71 14.71 0 0 1-.77-5.59v-1.52c0-3.2.42-5.38 1.25-6.56Q96.68 14 103 14a28.16 28.16 0 0 1 7 .92z"/><path id="Shape-2" data-name="Shape" class="cls-1" d="M89.44 25.66c-3-2.82-10.85-2.65-9.89-4.93.8-1.89 8.3-.7 10.44-.25l-.63-5.92a38.43 38.43 0 0 0-7.72-.56c-.67 0-1.46.08-2.27.18l-3.61 12.41c3.61 1.76 8.64 1.79 7.94 3.64-.67 1.6-6 1-9.13.42L73 36v.2a50 50 0 0 0 8.55.76c3.27-.13 8.72-.63 9.39-6.39a5.78 5.78 0 0 0-1.5-4.91z"/><path id="Shape-3" data-name="Shape" class="cls-1" d="M132 18.22c-1.54-2.74-4.26-4.22-8.54-4.22h-.68a14 14 0 0 0-4.06.63c-3.81 1.21-5.72 4-5.72 8.38v4.92a10 10 0 0 0 1 4.58c1.39 3 4.44 4.49 9.06 4.49a16.21 16.21 0 0 0 3.54-.4zm-5.79 11a2.78 2.78 0 0 1-3 2.11H123c-2 0-3.05-1-3.05-2.9v-5.67a4.35 4.35 0 0 1 .21-1.43 2.7 2.7 0 0 1 2.63-1.51h.54a2.76 2.76 0 0 1 1.36.26c1 .29 1.52 1.34 1.52 3.1v4.57c.04.63 0 1.05 0 1.43z"/><path id="Shape-4" data-name="Shape" class="cls-1" d="M20.67 14h-6.34l-3.37 13.86L7.25 14H0l6.73 22h7.73l3.06-9.76L20.5 36h7.77L35 14h-7.29l-3.67 13.86L20.67 14z"/><path id="Shape-5" data-name="Shape" class="cls-1" d="M51.21 18.52C49.77 15.51 46.7 14 42 14a16.06 16.06 0 0 0-3.65.45l-.2.66L33 32.15c1.49 3.2 4.71 4.85 9.66 4.85a49.82 49.82 0 0 0 5.19-.25 23.11 23.11 0 0 0 3.6-.67v-5.62a39.29 39.29 0 0 1-7.73.79h-.56A9.29 9.29 0 0 1 40.6 31c-1-.35-1.44-1.26-1.44-2.76v-.67H52v-4a12.23 12.23 0 0 0-.79-5.05zm-6.27 4.36h-5.76v-1.05c0-1.72.82-2.6 2.84-2.6a3.44 3.44 0 0 1 1.9.51c.68.29 1 1.21 1 2.76z"/><path id="Shape-6" data-name="Shape" class="cls-1" d="M173 23.55v4h-12.88v.67c0 1.51.47 2.43 1.42 2.77a9.29 9.29 0 0 0 2.52.29h.57a39.75 39.75 0 0 0 7.76-.79v5.62a23.83 23.83 0 0 1-3.61.67 50.67 50.67 0 0 1-5.22.25c-5.06 0-8.31-1.68-9.78-5a10.53 10.53 0 0 1-.82-4.1v-5.39c0-3.94 1.68-6.54 5.08-7.84a15.78 15.78 0 0 1 4.83-.7c4.74 0 7.84 1.51 9.27 4.53a12.2 12.2 0 0 1 .86 5.02zm-8.14-3.82a3.51 3.51 0 0 0-1.9-.5c-2 0-2.84.88-2.84 2.6v1.05h5.77v-.38c0-1.56-.35-2.5-1.03-2.77z"/><path id="Shape-7" data-name="Shape" class="cls-1" d="M75 17.14a3.9 3.9 0 0 0-.39-1.05C73.63 14 71.14 13 67.07 13a17.62 17.62 0 0 0-5 .84V3L55 4.22v30.85a50.37 50.37 0 0 0 9.33.93 20.77 20.77 0 0 0 5.21-.58zm-6.82 11.25c-.34 1.3-1.54 1.93-3.56 1.93h-.54L62 30.19V19.73a6.47 6.47 0 0 1 3.3-.93h1.1a2.32 2.32 0 0 1 2 2.53V27a4.4 4.4 0 0 1-.18 1.35z"/><path id="Shape-8" data-name="Shape" class="cls-1" d="M150.12 18.25a7 7 0 0 0-4.17-3.8 13 13 0 0 0-9.53 1.22l-6.42 21V47l7.25-1.27V36.1a12 12 0 0 0 1.45.42 16.74 16.74 0 0 0 3.73.43c4.18 0 6.77-1.06 7.69-3.19.57-1 .88-3.12.88-6.54v-2.17c0-3.63-.31-5.32-.88-6.8zm-6.4 10.26a2.32 2.32 0 0 1-2 2.53h-1.05a7.31 7.31 0 0 1-3.39-1v-9.12a16 16 0 0 1 1.94-.56c.31 0 .57-.07.79-.12 1.93-.3 3.16.35 3.55 1.64a3.81 3.81 0 0 1 .18 1.42z"/><path id="Shape-9" data-name="Shape" class="cls-2" d="M175.81 0L172 10h3.18L179 0h-3.19z"/><path id="Shape-10" data-name="Shape" class="cls-2" d="M180.42 0l-3.82 10h3.18l3.82-10h-3.18z"/><path id="Shape-11" data-name="Shape" class="cls-2" d="M184.81 0L181 10h3.18L188 0h-3.19z"/></g></g></g></svg>